<svg xmlns="http://www.w3.org/2000/svg" width="34.614" height="37.086" viewBox="0 0 34.614 37.086"><defs><style>.a{fill:#fff;}</style></defs><path class="a" d="M24.5,13.487V1.125H2.25V38.211h9.89V30.794h2.472v7.417H36.864V13.487ZM8.431,33.266H5.959V30.794H8.431Zm0-6.181H5.959V24.613H8.431Zm0-6.181H5.959V18.432H8.431Zm0-6.181H5.959V12.251H8.431Zm0-6.181H5.959V6.07H8.431Zm9.89-2.472h2.472V8.542H18.321ZM14.612,27.085H12.14V24.613h2.472Zm0-6.181H12.14V18.432h2.472Zm0-6.181H12.14V12.251h2.472Zm0-6.181H12.14V6.07h2.472Zm6.181,24.724H18.321V30.794h2.472Zm0-6.181H18.321V24.613h2.472Zm0-6.181H18.321V18.432h2.472Zm0-6.181H18.321V12.251h2.472Zm13.6,21.015H24.5V33.266h2.472V30.794H24.5V27.085h2.472V24.613H24.5V20.9h2.472V18.432H24.5V15.959h9.89Z" transform="translate(-2.25 -1.125)"/><path class="a" d="M27,28.125h2.472V30.6H27Z" transform="translate(0.196 1.544)"/><path class="a" d="M27,22.5h2.472v2.472H27Z" transform="translate(0.196 0.988)"/><path class="a" d="M27,16.875h2.472v2.472H27Z" transform="translate(0.196 0.432)"/></svg>