<svg xmlns="http://www.w3.org/2000/svg" width="33" height="37.359" viewBox="0 0 33 37.359"><defs><style>.a{fill:#fff;}</style></defs><path class="a" d="M7.612,31.012h28.2V1.125H7.534A4.737,4.737,0,0,0,2.813,5.847v27.52h0c0,.012,0,.023,0,.035a4.977,4.977,0,0,0,4.722,5.082H35.813V35.994H7.534A2.528,2.528,0,0,1,5.3,33.4a2.382,2.382,0,0,1,2.309-2.39ZM27.719,3.641v13.45l-3.767-3.308-3.7,3.289V3.641Zm-9.962-.025V20.428H20.22l3.741-3.32,3.781,3.32H30.21V3.616h3.114V28.522H10.29L10.285,3.616Zm-10.221,0h.259L7.8,28.522H7.612a4.653,4.653,0,0,0-2.307.613V5.866a2.244,2.244,0,0,1,2.23-2.25Z" transform="translate(-2.813 -1.125)"/></svg>