<svg xmlns="http://www.w3.org/2000/svg" width="28.404" height="39.766" viewBox="0 0 28.404 39.766"><defs><style>.a{fill:#333;}</style></defs><path class="a" d="M34.727,12.618,24.786,2.677a1.293,1.293,0,0,0-.993-.427H9.59A2.84,2.84,0,0,0,6.75,5.09V39.175a2.84,2.84,0,0,0,2.84,2.84H32.313a2.84,2.84,0,0,0,2.84-2.84V13.612a1.293,1.293,0,0,0-.425-.993ZM23.792,5.659l7.953,7.953H23.792Zm8.521,33.516H9.59V5.09H20.952v8.521a2.84,2.84,0,0,0,2.84,2.84h8.521Z" transform="translate(-6.75 -2.25)"/><path class="a" d="M16.931,26.9,13.252,23.22l-2,2L16.931,30.9,28.292,19.541l-2-2Z" transform="translate(-5.569 1.762)"/></svg>