<svg xmlns="http://www.w3.org/2000/svg" width="46.162" height="30" viewBox="0 0 46.162 30"><defs><style>.a{fill:#333;}</style></defs><path class="a" d="M32.105,30.83c-1.151-.411-3.033-.431-3.866-.75a5.424,5.424,0,0,1-1.788-.833,11.05,11.05,0,0,1-.3-2.93,4.737,4.737,0,0,0,1.018-1.439,15.961,15.961,0,0,0,.493-2.828s.678.288.946-1.069c.227-1.173.658-1.788.545-2.652s-.6-.658-.6-.658.6-.874.6-3.846c0-3.063-2.313-6.075-6.641-6.075s-6.652,3.022-6.652,6.075c0,2.971.586,3.846.586,3.846s-.483-.206-.6.658.309,1.48.545,2.652c.268,1.367.946,1.069.946,1.069a16.279,16.279,0,0,0,.493,2.828,4.737,4.737,0,0,0,1.018,1.439,11.05,11.05,0,0,1-.3,2.93,5.276,5.276,0,0,1-1.788.823c-.823.319-2.7.36-3.866.771a7.256,7.256,0,0,0-4.708,6.909H36.8a7.242,7.242,0,0,0-4.7-6.919Z" transform="translate(0.548 -7.749)"/><path class="a" d="M13.37,24.224s2.457-.082,3.433-.956c-1.594-2.416-.73-5.233-1.059-7.865s-1.82-4.2-4.8-4.2H10.9a4.351,4.351,0,0,0-4.76,4.2c-.329,2.622.586,5.758-1.048,7.865.977.885,3.444.854,3.444.854a5.228,5.228,0,0,1-.1,1.727,2.6,2.6,0,0,1-1.234.566,23.872,23.872,0,0,0-2.663.74,4.33,4.33,0,0,0-2.323,3.825h8.256c.227-.823,1.778-2.293,3.29-3.063a6.944,6.944,0,0,1,2.54-.535s.39-.617-.895-.854a8.754,8.754,0,0,1-1.974-.689C13.236,25.611,13.37,24.224,13.37,24.224Z" transform="translate(-2.215 -6.151)"/><path class="a" d="M27.241,24.224s-2.457-.082-3.433-.956c1.594-2.416.73-5.233,1.059-7.865s1.82-4.2,4.8-4.2h.041a4.351,4.351,0,0,1,4.76,4.2c.329,2.622-.586,5.758,1.048,7.865-.977.885-3.444.854-3.444.854a5.228,5.228,0,0,0,.1,1.727,2.6,2.6,0,0,0,1.234.566,23.872,23.872,0,0,1,2.663.74A4.33,4.33,0,0,1,38.4,30.979H30.141c-.227-.823-1.778-2.293-3.29-3.063a6.944,6.944,0,0,0-2.54-.535s-.39-.617.895-.854a8.754,8.754,0,0,0,1.974-.689c.2-.227.061-1.614.061-1.614Z" transform="translate(7.766 -6.151)"/></svg>