<svg xmlns="http://www.w3.org/2000/svg" width="42.705" height="42.704" viewBox="0 0 42.705 42.704"><defs><style>.a{fill:#333;}</style></defs><path class="a" d="M41.953,41.953a2.518,2.518,0,0,1-3.587,0L19.642,23.228l-4.379,4.378v.042a2.565,2.565,0,0,1-3.627,3.629L.751,20.392a2.566,2.566,0,0,1,0-3.627,2.477,2.477,0,0,1,1.814-.751,2.465,2.465,0,0,1,1.814.751l.042.042L16.805,4.421l-.042-.042a2.471,2.471,0,0,1-.751-1.814A2.473,2.473,0,0,1,16.765.751a2.566,2.566,0,0,1,3.627,0L31.277,11.636a2.565,2.565,0,0,1-3.627,3.627l-.042-.042L23.23,19.6,41.954,38.366a2.517,2.517,0,0,1,0,3.587Zm-27.9-31.527-3.586,3.629L18.016,21.6,21.6,18.016Z"/></svg>